<svg xmlns="http://www.w3.org/2000/svg" viewBox="0 0 256 256" fill="none">
  <rect width="256" height="256" fill="#08111A" />
  <g transform="translate(38 10) scale(1.45)">
    <path
      fill="#62EBDE"
      d="M52.8 19a8.83 8.83 0 0 0-2.583-6.364A9.073 9.073 0 0 0 43.8 10c-2.416 0-4.73.948-6.417 2.636A8.83 8.83 0 0 0 34.8 19l.106 9.203c.444 39.433.776 78.865 1.394 118.297l12.803-5.303c-11.339-10.99-23.542-21.115-35.523-31.461a827.684 827.684 0 0 1-6.952-6.064c-.75-.661-1.762-1.001-2.79-.97-1.03.033-1.991.433-2.697 1.139s-1.106 1.667-1.139 2.697c-.031 1.028.308 2.041.97 2.79a825.665 825.665 0 0 1 6.064 6.952c10.346 11.982 20.471 24.184 31.46 35.523 5.36 5.252 12.88 2.2 12.804-5.303.617-39.432.95-78.864 1.394-118.297.034-3.067.07-6.135.106-9.203ZM70.8 146.5a8.83 8.83 0 0 0 2.583 6.364A9.072 9.072 0 0 0 79.8 155.5c2.415 0 4.73-.948 6.417-2.636A8.83 8.83 0 0 0 88.8 146.5c-.036-3.068-.072-6.136-.106-9.203C88.25 97.864 87.917 58.432 87.3 19l-12.803 5.303c11.338 10.99 23.541 21.115 35.523 31.461 2.328 2.01 4.648 4.03 6.951 6.064.75.661 1.763 1 2.791.97 1.03-.033 1.991-.433 2.697-1.14.706-.705 1.106-1.666 1.139-2.696.031-1.028-.309-2.041-.97-2.79a810.183 810.183 0 0 1-6.064-6.952c-10.346-11.982-20.472-24.184-31.46-35.523-5.36-5.252-12.88-2.2-12.804 5.303-.618 39.432-.95 78.864-1.394 118.297L70.8 146.5Z"
    />
  </g>
</svg>
